<svg xmlns="http://www.w3.org/2000/svg" xmlns:xlink="http://www.w3.org/1999/xlink" width="480" zoomAndPan="magnify" viewBox="0 0 360 359.999987" height="480" preserveAspectRatio="xMidYMid meet" version="1.0"><defs><clipPath id="a5b68c7534"><path d="M 135 72.382812 L 223 72.382812 L 223 227 L 135 227 Z M 135 72.382812 " clip-rule="nonzero"/></clipPath></defs><path fill="#ffffff" d="M 274.921875 142.992188 C 274.332031 135.214844 273.351562 127.460938 272.03125 119.773438 C 271.09375 114.335938 270 108.910156 268.671875 103.558594 C 268.527344 103.597656 268.386719 103.636719 268.242188 103.679688 C 258.496094 106.535156 248.917969 110.0625 239.597656 114.101562 C 232.371094 117.222656 225.359375 120.761719 218.417969 124.5 C 230.757812 112.8125 246.925781 104.347656 262.953125 98.921875 C 266.199219 97.8125 269.714844 96.859375 273.046875 95.964844 C 273.953125 99.285156 274.882812 102.832031 275.546875 106.191406 C 277.136719 114.046875 278.082031 122.066406 278.292969 130.078125 C 278.519531 139.285156 277.835938 148.585938 275.660156 157.546875 C 275.5 152.675781 275.300781 147.835938 274.921875 142.992188 Z M 274.921875 142.992188 " fill-opacity="1" fill-rule="nonzero"/><path fill="#ffffff" d="M 1.433594 217.828125 C 11.050781 212.179688 21.316406 207.605469 31.945312 204.230469 L 32.96875 203.910156 C 31.671875 204.523438 30.386719 205.148438 29.101562 205.769531 C 20.71875 209.890625 12.550781 214.488281 4.820312 219.722656 C 10.859375 228.136719 17.667969 236.042969 25 243.347656 C 32.710938 250.976562 41.132812 257.925781 50.308594 263.722656 C 66.742188 274.058594 83.378906 279.425781 102.890625 279.164062 C 115.769531 279.035156 128.546875 276.613281 140.859375 272.917969 C 150.457031 270.074219 159.824219 266.183594 168.902344 262.082031 C 168.902344 262.082031 168.589844 262.121094 168.589844 262.121094 L 168.894531 262.035156 L 169.039062 261.996094 C 169.039062 261.996094 168.914062 262.082031 168.914062 262.082031 C 167.769531 262.832031 166.191406 263.773438 165.058594 264.492188 C 141.890625 278.484375 113.199219 287.480469 85.980469 283.828125 C 65.847656 281.160156 47.414062 270.910156 32.253906 257.71875 C 19.925781 246.953125 9.359375 234.230469 0.921875 220.222656 L 0.00390625 218.675781 C 0.00390625 218.675781 1.4375 217.820312 1.4375 217.820312 Z M 1.433594 217.828125 " fill-opacity="1" fill-rule="nonzero"/><path fill="#ffffff" d="M 245.320312 278.433594 C 256.96875 279.746094 268.90625 279.425781 280.308594 276.589844 C 296.527344 272.578125 311.171875 263.898438 324.007812 253.316406 C 335.785156 243.539062 346.230469 232.132812 355.179688 219.722656 C 346.261719 213.683594 336.773438 208.492188 327.027344 203.914062 C 338.019531 207.308594 348.632812 212.011719 358.558594 217.832031 L 359.988281 218.6875 C 359.988281 218.6875 359.074219 220.222656 359.074219 220.222656 C 347.148438 239.871094 331.148438 257.367188 311.652344 269.695312 C 300.242188 276.859375 287.421875 282.058594 274.015625 283.835938 C 249.003906 287.160156 223.472656 279.996094 201.523438 268.253906 C 198.398438 266.59375 195.359375 264.769531 192.371094 262.878906 C 191.941406 262.613281 191.511719 262.34375 191.09375 262.066406 C 200.234375 266.328125 209.523438 270.035156 219.132812 272.925781 C 227.683594 275.496094 236.445312 277.425781 245.320312 278.429688 Z M 245.320312 278.433594 " fill-opacity="1" fill-rule="nonzero"/><path fill="#ffffff" d="M 107.046875 108.753906 C 101.863281 106.851562 96.625 105.085938 91.320312 103.558594 C 91.285156 103.699219 91.246094 103.84375 91.214844 103.988281 C 88.816406 113.859375 87.082031 123.917969 85.914062 134.007812 C 85.003906 141.828125 84.5625 149.667969 84.332031 157.546875 C 80.375 141.011719 81.128906 122.789062 84.449219 106.191406 C 85.109375 102.828125 86.046875 99.300781 86.9375 95.96875 C 90.261719 96.84375 93.800781 97.808594 97.042969 98.917969 C 104.644531 101.46875 112.054688 104.660156 119.105469 108.484375 C 127.195312 112.886719 134.90625 118.128906 141.582031 124.496094 C 137.277344 122.203125 132.988281 119.953125 128.605469 117.859375 C 121.578125 114.484375 114.363281 111.453125 107.050781 108.753906 Z M 107.046875 108.753906 " fill-opacity="1" fill-rule="nonzero"/><path fill="#ffffff" d="M 184.222656 256.035156 C 209.953125 261.027344 237.507812 261.710938 262.652344 253.390625 C 292.070312 243.925781 312.332031 218.78125 324.917969 191.527344 C 326.207031 188.757812 327.453125 185.859375 328.601562 183.023438 C 330.53125 178.203125 332.285156 173.296875 333.785156 168.320312 C 327.707031 166.777344 321.511719 165.605469 315.308594 164.71875 C 296.128906 162.039062 276.265625 162.203125 257.515625 167.410156 C 251.660156 169.058594 245.929688 171.207031 240.492188 173.957031 C 235 176.703125 229.847656 180.070312 224.992188 183.832031 C 229.898438 179.148438 235.40625 174.972656 241.332031 171.613281 C 244.816406 169.613281 248.550781 167.839844 252.28125 166.335938 C 271.179688 158.808594 292.128906 157.207031 312.253906 159.046875 C 321.9375 159.9375 331.570312 161.628906 340.953125 164.191406 C 338.539062 173.945312 335.234375 183.464844 331.144531 192.636719 C 323.507812 209.703125 313.070312 225.796875 299.109375 238.375 C 291.496094 245.246094 282.75 250.90625 273.25 254.796875 C 251.015625 263.910156 226.027344 264.488281 202.609375 260.429688 C 196.929688 259.429688 191.246094 258.144531 185.714844 256.515625 L 184.210938 256.054688 C 184.210938 256.054688 184.226562 256.039062 184.226562 256.039062 Z M 184.222656 256.035156 " fill-opacity="1" fill-rule="nonzero"/><g clip-path="url(#a5b68c7534)"><path fill="#ffffff" d="M 137.710938 182.171875 C 130.222656 149.226562 144.476562 115.621094 164.511719 89.875 C 169.273438 83.730469 174.425781 77.90625 180.011719 72.492188 C 185.8125 78.257812 191.113281 84.476562 195.984375 91.023438 C 200.4375 97.015625 204.523438 103.304688 208.089844 109.863281 C 215.207031 122.9375 220.472656 137.214844 222.152344 152.058594 C 222.375 154.128906 222.554688 156.316406 222.625 158.40625 C 222.722656 160.523438 222.6875 162.644531 222.621094 164.757812 C 222.375 159.484375 221.714844 154.246094 220.617188 149.101562 C 219.652344 144.515625 218.328125 139.902344 216.777344 135.480469 C 213.828125 127.089844 209.933594 119.03125 205.421875 111.371094 C 201.441406 104.621094 196.9375 98.167969 192.070312 92.027344 C 190.464844 89.984375 188.769531 87.96875 187.074219 85.992188 C 184.800781 83.371094 182.453125 80.800781 180.03125 78.332031 C 159.65625 99.933594 142.453125 128.003906 139.433594 157.914062 C 138.546875 166.894531 139.214844 175.984375 141.039062 184.824219 C 144.140625 199.734375 150.402344 213.839844 158.113281 226.925781 C 149.988281 215.445312 143.472656 202.796875 139.492188 189.257812 C 138.796875 186.957031 138.25 184.515625 137.714844 182.175781 Z M 137.710938 182.171875 " fill-opacity="1" fill-rule="nonzero"/></g><path fill="#ffffff" d="M 158.113281 226.925781 C 160.800781 230.386719 163.523438 233.789062 166.363281 237.113281 C 170.660156 242.160156 175.175781 247.058594 179.933594 251.679688 C 180.261719 251.320312 180.59375 250.964844 180.902344 250.617188 C 188.949219 241.71875 196.210938 232.089844 202.523438 221.890625 C 213.175781 204.585938 221.035156 185.164062 222.625 164.765625 C 224.042969 182.859375 218.460938 201.210938 210.117188 217.117188 C 204.644531 227.527344 197.820312 237.234375 190.085938 246.085938 C 186.890625 249.742188 183.488281 253.242188 179.929688 256.570312 L 178.78125 255.351562 C 174.734375 251.074219 171.003906 246.507812 167.523438 241.761719 C 164.085938 237.023438 160.875 232.089844 158.109375 226.929688 Z M 158.113281 226.925781 " fill-opacity="1" fill-rule="nonzero"/><path fill="#ffffff" d="M 88.246094 255.398438 C 63.382812 245.824219 44.988281 224.503906 33.015625 201.285156 C 31.316406 198.015625 29.683594 194.546875 28.214844 191.167969 C 24.410156 182.453125 21.339844 173.421875 19.050781 164.1875 C 29.644531 161.300781 40.542969 159.511719 51.492188 158.738281 C 70.765625 157.417969 90.609375 159.316406 108.597656 166.683594 C 110.851562 167.621094 113.222656 168.710938 115.390625 169.824219 C 116.667969 170.476562 118.25 171.363281 119.488281 172.074219 C 125.097656 175.367188 130.335938 179.351562 135.015625 183.832031 C 130.164062 180.070312 125.003906 176.703125 119.511719 173.957031 C 114.082031 171.207031 108.34375 169.054688 102.488281 167.410156 C 84.328125 162.363281 65.109375 162.054688 46.496094 164.472656 C 39.683594 165.382812 32.882812 166.632812 26.214844 168.328125 C 27.117188 171.332031 28.121094 174.3125 29.191406 177.257812 C 33.421875 188.835938 38.757812 200.070312 45.410156 210.453125 C 54.734375 225.019531 66.808594 238.164062 81.984375 246.636719 C 95.453125 254.152344 110.738281 257.855469 126.035156 259.15625 C 134.304688 259.863281 142.636719 259.875 150.933594 259.328125 C 159.253906 258.777344 167.558594 257.6875 175.789062 256.058594 L 174.285156 256.519531 C 173.78125 256.667969 173.273438 256.808594 172.769531 256.953125 C 169.734375 257.8125 166.671875 258.5625 163.589844 259.226562 C 138.800781 264.476562 112.144531 264.675781 88.25 255.40625 Z M 88.246094 255.398438 " fill-opacity="1" fill-rule="nonzero"/></svg>